<?xml version="1.0" encoding="utf-8"?>
<!-- Generator: Adobe Illustrator 22.0.1, SVG Export Plug-In . SVG Version: 6.00 Build 0)  -->
<svg version="1.1" id="Layer_1" xmlns="http://www.w3.org/2000/svg" xmlns:xlink="http://www.w3.org/1999/xlink" x="0px" y="0px"
	 viewBox="0 0 560 288" style="enable-background:new 0 0 560 288;" xml:space="preserve">
<style type="text/css">
	.st0{fill:#FFFFFF;}
</style>
<g>
	<path class="st0" d="M113.7,126.7c71.5,5,143,10,214.4,15c18.7,1.3,37.5,2.6,56.3,2.7c18.4,0,36.8-1.1,55.2-0.7"/>
	<g>
		<path d="M113.7,128.2c42.7,3,85.4,6,128.1,8.9c42,2.9,84.1,6.8,126.2,8.4c23.9,0.9,47.8-0.8,71.7-0.4c1.9,0,1.9-3,0-3
			c-21-0.4-42,1.1-63,0.6c-21.2-0.4-42.3-2.1-63.4-3.6c-42.4-3-84.7-5.9-127.1-8.9c-24.2-1.7-48.3-3.4-72.5-5.1
			C111.8,125.1,111.8,128.1,113.7,128.2L113.7,128.2z"/>
	</g>
</g>
<g>
	<path class="st0" d="M159.6,114.4c-0.2,4.8,2.2,9.2,3.9,13.8c2.7,7.3,3.3,15.3,1.8,22.9"/>
	<g>
		<path d="M158.1,114.4c0.1,5.4,2.5,10,4.2,15c2.3,6.9,2.7,14.1,1.5,21.3c-0.3,1.9,2.6,2.7,2.9,0.8c1.1-5.9,1.1-11.8-0.1-17.7
			c-1.3-6.6-5.4-12.6-5.5-19.4C161,112.5,158,112.5,158.1,114.4L158.1,114.4z"/>
	</g>
</g>
<g>
	<path class="st0" d="M147.9,70c1.8-2.4,3.5-4.8,5.2-7.2c0.7-1,2.1-2.1,3-1.2c0.4,0.4,0.4,1,0.3,1.6c-0.4,8.1-0.9,16.1-1.3,24.2"/>
	<g>
		<path d="M149.2,70.8c1.6-2.1,3-5.1,5-6.7c1.6-1.3,0.7,0.3,0.6,1.9c-0.1,1.6-0.2,3.1-0.2,4.7c-0.3,5.6-0.6,11.2-0.9,16.8
			c-0.1,1.9,2.9,1.9,3,0c0.3-5,0.5-9.9,0.8-14.9c0.2-2.9,1.7-8.7,0.1-11.3c-3.3-5.5-9.7,6.3-11,8.1C145.4,70.8,148,72.3,149.2,70.8
			L149.2,70.8z"/>
	</g>
</g>
<g>
	<path class="st0" d="M142.9,90.1c7.7,0,15.5,0,23.2,0"/>
	<g>
		<path d="M142.9,91.6c7.7,0,15.5,0,23.2,0c1.9,0,1.9-3,0-3c-7.7,0-15.5,0-23.2,0C141,88.6,141,91.6,142.9,91.6L142.9,91.6z"/>
	</g>
</g>
<g>
	<path class="st0" d="M387.8,104.8c1.8,13.1,2.6,26.3,3.4,39.5c0.4,7.2,0.9,14.4,1.3,21.6"/>
	<g>
		<path d="M386.3,104.8c2.7,20.2,3.4,40.7,4.6,61c0.1,1.9,3.1,1.9,3,0c-1.2-20.3-1.9-40.8-4.6-61C389,102.9,386,102.9,386.3,104.8
			L386.3,104.8z"/>
	</g>
</g>
<g>
	<path class="st0" d="M370.1,62.2c1.9-1.1,4-2.3,6.1-2c2.8,0.4,4.8,3.3,4.8,6.2c0,2.9-1.5,5.5-3.4,7.7c-1.9,2.1-4.2,3.9-6.2,5.9
		c-0.8,0.8-1.6,1.8-1.8,2.9c-0.2,1.1,0.6,2.5,1.7,2.6c0.8,0.1,1.5-0.5,2.2-1c3.1-2.3,7-3.7,10.9-3.7c1.2,0,2.8,0.5,2.6,1.7"/>
	<g>
		<path d="M370.9,63.5c1.7-0.9,6.5-1.1,7.9,0.2c1.6,1.5,0.6,4.6-0.1,6.3c-1.1,2.5-3.1,4.3-5.1,6.1c-2,1.9-5.5,4.3-5.2,7.5
			c0.1,1.7,1.3,3.4,3.2,3.5c2.2,0.1,12.8-8.1,14.2-4.1c0.6,1.8,3.5,1,2.9-0.8c-1.5-4.4-7.6-2.7-11-1.5c-1.1,0.4-2.2,1.3-3.3,1.6
			c-1.1,1.4-1.6,1.3-1.6-0.1c-0.5-1-0.1-1.8,1-2.2c1.8-2.5,4.7-4.1,6.5-6.8c2.4-3.6,3.3-8.4,0.3-12c-3.2-3.8-7.5-2.4-11.2-0.3
			C367.7,61.9,369.2,64.4,370.9,63.5L370.9,63.5z"/>
	</g>
</g>
<g>
	<path class="st0" d="M260.5,111.8c0.6-7.4,5.5-13.7,10.3-19.4c6.9-8.2,13.9-16.2,21.2-24"/>
	<g>
		<path d="M262,111.8c1.1-9.1,7.8-16,13.5-22.7c5.7-6.7,11.6-13.2,17.6-19.7c1.3-1.4-0.8-3.5-2.1-2.1c-7.3,7.8-14.4,15.8-21.2,24
			c-5.1,6.1-9.7,12.4-10.7,20.5C258.7,113.7,261.7,113.7,262,111.8L262,111.8z"/>
	</g>
</g>
<g>
	<path class="st0" d="M255.7,98.9c2.6,4.8,4.7,9.8,6.2,15c2.8-1.7,2.8-6.6,6-7.4c1.5-0.4,3.7,0.1,4.2-1.4c0.3-1-0.6-1.9-1.5-2.5
		c-4.2-2.8-9.1-4.4-14.2-4.6c1.1,2.2,3.2,3.7,4.9,5.6c1.7,1.8,3,4.5,1.8,6.7c0-2,1.3-3.8,3.1-4.6c1.3-0.6,3.3-1,3.2-2.4
		c0-0.9-0.9-1.5-1.7-1.9c-1.6-0.8-3.3-1.5-5-2.1c-1-0.3-2.7-0.1-2.5,1c0.1,0.4,0.4,0.7,0.8,0.9c1.5,1,3.1,1.7,4.7,2.2
		c-0.8,0.2-0.9-1.4-0.2-1.4"/>
	<g>
		<path d="M254.4,99.6c2.5,4.7,4.5,9.6,6.1,14.7c0.3,0.8,1.4,1.5,2.2,0.9c2.4-1.7,2.6-4.8,4.6-6.6c1.9-1.6,5.6,0,6.3-3.2
			c0.6-3-3.4-4.9-5.5-5.9c-3.7-1.8-7.6-2.7-11.7-2.9c-1.2-0.1-1.8,1.3-1.3,2.3c1.9,3.4,8.2,6.7,6.6,11.2c1,0.1,2,0.3,2.9,0.4
			c0.4-4,6.1-3,6.3-6.8c0.1-3.1-4.4-4.5-6.7-5.3c-1.8-0.6-5.1-1-5.4,1.7c-0.3,2.9,4.5,4.3,6.6,5c0.3-1,0.5-1.9,0.8-2.9
			c-0.2,0-0.3-0.1-0.5-0.1c0.3,0.3,0.7,0.7,1,1c-0.1,0.2-0.3,0.3-0.4,0.5c1.7-1,0.2-3.6-1.5-2.6c-1.8,1.1-1.5,3.5,0.5,4.1
			c1.9,0.6,2.6-2.3,0.8-2.9c-0.7-0.3-2.8-1.6-3.5-1.5c-1.2,0.1,1.8,1.1,1.7,1c0.8,0.3,2.6,0.8,2.9,1.6c0.4,1-0.8,0.8-1.6,1.3
			c-2.5,1.2-3.7,3.2-4,6c-0.2,1.8,2.4,1.9,2.9,0.4c2.2-6.1-4.4-9-6.9-13.5c-0.4,0.8-0.9,1.5-1.3,2.3c3.3,0.2,6.6,0.9,9.7,2.3
			c0.8,0.4,3.8,1.5,4.1,2.4c0.4,1.1-1.2,0.6-2,0.7c-4.4,0.8-3.9,5.4-7,7.6c0.7,0.3,1.5,0.6,2.2,0.9c-1.6-5.4-3.7-10.5-6.4-15.4
			C256.1,96.4,253.5,97.9,254.4,99.6L254.4,99.6z"/>
	</g>
</g>
<g>
	<path class="st0" d="M262.9,104.7c0,1,0,2,0,2.9c0,0.3,0,0.7-0.2,0.9c-0.5,0.6-1.4,0-1.8-0.6c-0.9-1.4-0.9-3.4-0.1-4.9"/>
	<g>
		<path d="M261.4,104.7c0,0.7,0,1.4,0,2.1c0,0.5-0.3,1,0.4,0.7c0.6-0.2,0.4-0.1,0.2-0.5c-0.5-1-0.4-2.1,0.1-3
			c0.9-1.7-1.7-3.2-2.6-1.5c-1.2,2.2-1.2,5.9,1.1,7.4c1.1,0.7,2.6,0.7,3.4-0.5c0.8-1.2,0.4-3.3,0.4-4.6
			C264.4,102.8,261.4,102.8,261.4,104.7L261.4,104.7z"/>
	</g>
</g>
<g>
	<path class="st0" d="M299.1,59.4c2.4,1.3,4.8,2.6,7.2,4c0.6,0.3,1.4,0.6,1.9,0.1c0.2-0.2,0.3-0.6,0.3-0.9c0.2-2.8-1.6-5.3-3.3-7.5
		c-2.2-2.9-4.3-5.8-6.5-8.7c4.8-2.3,9.1-5.6,12.7-9.5"/>
	<g>
		<path d="M298.3,60.7c2.3,1.3,9.6,7.3,11.4,2.8c0.9-2.2-0.7-5.2-1.8-7c-2.3-3.8-5.3-7.2-8-10.7c-0.2,0.7-0.4,1.4-0.5,2.1
			c4.9-2.5,9.2-5.7,13-9.8c1.3-1.4-0.8-3.5-2.1-2.1c-3.6,3.9-7.7,6.9-12.4,9.3c-0.7,0.3-1,1.4-0.5,2.1c2.3,3.1,4.8,6.2,7,9.3
			c0.9,1.3,3,4.4,0.5,4.3c-1.4-0.1-3.8-2.1-5.1-2.8C298.2,57.2,296.6,59.7,298.3,60.7L298.3,60.7z"/>
	</g>
</g>
<g>
	<path class="st0" d="M310.8,46.2c1-2.4,2.8-5.1,5.5-5.1c2,0,3.7,1.8,4.2,3.7s0.1,4-0.5,5.9c-0.5,1.5-1.1,3-1.9,4.5
		c-1.1,2.1-2.6,4.4-2,6.7c0.8-0.2,1.6-0.7,2.3-1.2c2.7-1.9,5.3-3.8,8-5.7"/>
	<g>
		<path d="M312,47c0.9-1.9,2.7-5.3,5.3-4c3.2,1.5,1.3,7.1,0.3,9.5c-1.4,3.2-3.4,5.9-3.2,9.5c0.1,0.9,0.9,1.8,1.9,1.4
			c3.9-1.5,7.2-4.6,10.6-7c1.6-1.1,0.1-3.7-1.5-2.6c-3,2.2-6.4,5.4-9.8,6.7c0.6,0.5,1.3,1,1.9,1.4c-0.4-6.5,8.4-13.4,3.1-20
			c-4-5-9.1-0.9-11.2,3.5C308.7,47.2,311.2,48.7,312,47L312,47z"/>
	</g>
</g>
<g>
	<path class="st0" d="M255.4,67.9c-0.2-2.6-0.3-5.4,0.9-7.8c1.2-2.4,4-4.1,6.5-3.1c1.7,0.7,2.7,2.4,3,4.1c0.3,1.8,0,3.6-0.3,5.3
		c-0.3,1.7-0.6,3.4-0.4,5.1c0.2,1.7,1.1,3.4,2.7,4.2"/>
	<g>
		<path d="M256.9,67.9c-0.2-2.7-0.5-6.2,1.6-8.3c2.7-2.7,5.6-0.1,5.9,2.9c0.2,1.8-0.4,3.7-0.7,5.5c-0.5,3.6,0,7,3.3,9.1
			c1.6,1.1,3.1-1.5,1.5-2.6c-4.2-2.8-0.4-9.6-1.3-13.7c-0.6-2.6-2.4-5.1-5.2-5.5c-7.1-1-8.5,7.5-8.1,12.6
			C254,69.8,257,69.9,256.9,67.9L256.9,67.9z"/>
	</g>
</g>
<g>
	<path class="st0" d="M273.2,78.8c-1.4,0.5-2.4,2.1-2.2,3.6c2-1.1,3.8-2.6,5.1-4.6c0.1,0.4-0.5,0.7-0.8,0.4s-0.2-0.8,0-1.1
		c-0.4-0.4-1.1-0.3-1.5,0"/>
	<g>
		<path d="M272.4,77.5c-1.9,0.8-3.1,2.9-3,4.9c0.1,1.1,1.2,1.9,2.3,1.3c2.3-1.2,4.2-3,5.6-5.1c-0.9-0.3-1.9-0.5-2.8-0.8
			c0.7,0,1.3,0,2,0.1c0.5-0.7,0.1-1.6-0.5-2.1c-0.9-0.6-2.1-0.6-3,0c-1.6,1.1-0.1,3.7,1.5,2.6c0-0.1,0-0.1,0,0
			c-0.2-0.7-0.4-1.4-0.5-2.1c-0.7,1.1-0.5,2.8,0.9,3.3c1.3,0.5,2.7-0.5,2.7-1.9c0-1.5-2-2-2.8-0.8c-1.2,1.7-2.7,3.1-4.5,4
			c0.8,0.4,1.5,0.9,2.3,1.3c-0.1-1.1,0.5-1.9,1.5-2.3c0.8-0.3,0.9-1.4,0.5-2.1C274,77.2,273.2,77.1,272.4,77.5L272.4,77.5z"/>
	</g>
</g>
</svg>
