<?xml version="1.0" encoding="utf-8"?>
<!-- Generator: Adobe Illustrator 22.0.1, SVG Export Plug-In . SVG Version: 6.00 Build 0)  -->
<svg version="1.1" id="Layer_1" xmlns="http://www.w3.org/2000/svg" xmlns:xlink="http://www.w3.org/1999/xlink" x="0px" y="0px"
	 viewBox="0 0 288 560" style="enable-background:new 0 0 288 560;" xml:space="preserve">
<style type="text/css">
	.st0{fill:#C69C6D;}
	.st1{fill:none;stroke:#000000;stroke-width:2;stroke-miterlimit:10;}
	.st2{stroke:#000000;stroke-width:2;stroke-miterlimit:10;}
</style>
<g>
	<g>
		<path d="M67.7,178.1c-2.9,21.7,1.6,43.6,13.1,62.3c1,1.6,3.6,0.1,2.6-1.5C72.3,221,67.8,199.8,70.6,179
			C70.8,177,67.9,176.2,67.7,178.1L67.7,178.1z"/>
	</g>
</g>
<g>
	<path class="st0" d="M71.8,219.7c0.7,7.1-2.8,13.9-3.7,21c-1.4,11.4,4,22.5,10.6,31.9c6.7,9.5,14.8,18,23.9,25.1"/>
	<g>
		<path d="M70.3,219.7c0.4,8.4-3.8,16.1-3.9,24.5c-0.1,6.9,2.1,13.5,5.1,19.6c6.9,13.7,18,25.6,30,35c1.5,1.2,3.6-0.9,2.1-2.1
			c-11.4-9-21.8-20-28.7-32.9c-3.8-7-6.2-14.9-5.3-22.9c0.9-7.2,4-13.8,3.6-21.2C73.2,217.8,70.2,217.8,70.3,219.7L70.3,219.7z"/>
	</g>
</g>
<g>
	<g>
		<path d="M134.9,254.8c-11.6,3.2-19.2,12.7-23.8,23.4c-2.5,5.8-4.7,12-6.1,18.1c-1,4.2-1.4,9.1,1.8,12.5c3.6,3.9,10.6,4.7,15.5,5.5
			c6.1,0.9,12.4,0.9,18.5-0.6c10.2-2.6,18.8-9.5,22.6-19.3c-1,0-1.9,0-2.9,0c3.1,14.4,22.1,13.4,33.4,12.9c7.7-0.3,27.9-3.9,19.5-16
			c-1.4-2-3.3-3.5-5-5.2c-3.2-3-4.9-6.3-6.1-10.5c-1.8-6.5-4.5-11.9-9.5-16.6c-9.3-8.6-22.2-12.9-34.9-12.9
			c-14.2,0-28,5.3-38.3,15.1c-1.4,1.3,0.7,3.5,2.1,2.1c9.7-9.3,22.8-14.2,36.2-14.2c13.9,0,29.7,5.6,37.6,17.7
			c3.5,5.4,3.5,12.3,7.2,17.6c3.2,4.5,14,10.2,7.1,16.1c-5.8,5-16.8,4-23.9,3.9c-8.5-0.1-20.2-0.5-22.5-10.8c-0.3-1.6-2.4-1.3-2.9,0
			c-3.3,8.6-10.9,14.6-19.7,17c-5,1.4-10.3,1.6-15.5,1.1c-4.9-0.5-13.3-1.4-16.4-5.5s-0.9-9.8,0.5-14.3c1.5-4.9,3.1-9.8,5.3-14.5
			c4.2-9,11-16.9,20.9-19.6C137.5,257.2,136.7,254.3,134.9,254.8L134.9,254.8z"/>
	</g>
</g>
<g>
	<g>
		<path d="M208.3,283.2c0-2.6,0-5.3-0.1-7.9c0-3.3,0.6-5.3,3.5-6.9c3-1.6,5.2-3.9,6.9-6.8c4.3-7.3,5.8-17.1,5.7-25.5
			c-0.2-15.8-10-32-27.1-32.8c-1.9-0.1-1.9,2.9,0,3c20.4,0.9,26.2,23.8,23.1,40.4c-1.5,7.9-3.8,15.5-11.2,19.5
			c-6.1,3.3-3.9,11-3.9,16.9C205.3,285.1,208.3,285.1,208.3,283.2L208.3,283.2z"/>
	</g>
</g>
<g>
	<g>
		<path d="M190.7,210.2c0.1-5.1,2.9-9.1,4.7-13.7c1.6-4.2,2.2-8.6,1.9-13.1c-0.6-9.3-4.6-18-8.5-26.3c-0.8-1.7-3.4-0.2-2.6,1.5
			c4.1,8.7,8.6,18.3,8.2,28.3c-0.3,8.5-6.6,14.9-6.7,23.3C187.7,212.1,190.7,212.1,190.7,210.2L190.7,210.2z"/>
	</g>
</g>
<g>
	<path class="st0" d="M192.9,167.4c-2.7,7.6,0.4,16.2,5.4,22.5s11.7,11.1,17.6,16.5c8.3,7.7,15.1,16.9,20,27.1
		c1.7-16,2.4-32,2.2-48.1c-0.1-5.2-0.3-10.5-2-15.5c-4-11.2-15.5-18.7-18.8-30.1c-0.9-3.1-1.2-6.5-2.9-9.2c-1.5-2.3-3.8-3.8-6.2-5
		c-10.2-5.1-22.2-4.6-33.6-4.1c-23.4,1.1-46.8,2.3-70.2,3.4c-5.3,0.3-10.8,0.5-15.6,2.7c-7.5,3.4-12.4,10.7-19,15.5
		c-9.1,6.7-21.8,9.3-27.3,19.1c-7.2,12.9,2.7,29.8-2.9,43.5c-0.6,1.4-1.3,2.9-0.6,4.2c0.4,0.8,1.2,1.2,2,1.6
		c7,2.7,15.2-5.8,12.2-12.6c2.5,2.1,5.2,4.2,8.5,4.4c-1.6-4-0.7-8.8,2.2-12c1.2-1.3,2.8-2.4,3.7-4s0.8-4-0.8-4.8"/>
	<g>
		<path d="M191.5,167c-4,13.1,4.9,24.4,14.2,32.6c11.8,10.3,21.9,20.5,28.9,34.7c0.7,1.5,2.7,0.6,2.8-0.8c1.7-16,2.5-32,2.2-48.1
			c-0.1-6-0.4-12-2.7-17.6c-2.3-5.4-6.2-9.9-9.9-14.5c-4.3-5.4-7.4-10.4-9.1-17.1c-1.6-6.4-4.5-10-10.6-12.7
			c-12.1-5.4-25.9-3.9-38.6-3.3c-16.2,0.8-32.5,1.6-48.7,2.4c-13.1,0.6-27.9-0.8-38.7,8c-5,4.1-9.1,9.2-14.6,12.7
			c-4.6,3-9.8,5.1-14.6,7.8c-9.7,5.6-14.4,13.7-14,25c0.2,7,1.9,14,1.5,21c-0.2,3.8-2.4,7.3-2.6,10.9c-0.1,1.7,0.4,3,1.8,4
			c8.2,6.1,18.3-5.7,15.6-13.7c-0.8,0.5-1.7,1-2.5,1.5c2.8,2.3,5.5,4.2,9.1,4.8c1.1,0.2,2.2-0.7,1.8-1.8c-1.2-3.7-0.7-7.5,1.8-10.5
			c1.2-1.5,3-2.5,3.9-4.3c1.2-2.3,1-4.9-1.1-6.6c-1.5-1.2-3.6,0.9-2.1,2.1c2.2,1.8-4.7,8.8-5.5,10.9c-1.1,3-1,6.1,0,9.1
			c0.6-0.6,1.2-1.2,1.8-1.8c-3.2-0.5-5.4-2.1-7.8-4c-1.1-0.9-3-0.1-2.5,1.5c1,3.1,0.2,6.1-2,8.5c-1.6,1.7-9.1,5.8-9.3-0.2
			c-0.1-2,1.7-5,2-7c0.3-2.1,0.4-4.2,0.4-6.3c-0.2-10.1-4.4-21.8,0.9-31.2c4.9-8.8,15.9-11.7,24-16.7c9.1-5.6,14.9-16,25.7-18.7
			c6.1-1.5,12.6-1.3,18.8-1.6c6.8-0.3,13.6-0.7,20.5-1c13-0.6,26-1.3,39-1.9c12-0.6,25.5-1.8,36.5,4.1c6.8,3.7,6.2,9.5,8.7,15.6
			c1.7,4.2,4.4,7.9,7.2,11.4c3.5,4.4,7.3,8.6,9.7,13.7c3.1,6.6,2.9,14.1,2.9,21.2c0.1,14.8-0.7,29.5-2.3,44.3
			c0.9-0.3,1.9-0.5,2.8-0.8c-5.6-11.4-13.3-21.4-22.8-29.7c-10.2-8.9-24.8-19.8-20-35.3C194.9,166,192,165.2,191.5,167L191.5,167z"
			/>
	</g>
</g>
<circle class="st1" cx="116.6" cy="197.9" r="21.8"/>
<circle class="st1" cx="164.4" cy="194.5" r="23.2"/>
<circle class="st2" cx="125.1" cy="203" r="8.5"/>
<circle class="st2" cx="159.8" cy="197.9" r="8.5"/>
<g>
	<g>
		<path d="M136.6,314.5c11.8,3.1,24.6,6.7,36.9,4.7c3.6-0.6,7.6-1.9,9.9-5c1-1.4,1-2.8,1.7-4.3c1.6-3.3,4-2.3,6.5-4.1
			c1.6-1.1,0.1-3.7-1.5-2.6c-2.6,1.9-5.9,0.9-7.5,4.2c-1.1,2.3-0.6,4.3-2.9,6.2c-2.1,1.7-5,2.4-7.6,2.7c-11.7,1.4-23.5-1.9-34.6-4.8
			C135.6,311.1,134.8,314,136.6,314.5L136.6,314.5z"/>
	</g>
</g>
<g>
	<g>
		<path d="M149.3,280.5c3,1.2,4.7,4.3,4.4,7.5c-0.2,1.9,2.8,1.9,3,0c0.4-4.6-2.4-8.7-6.6-10.4C148.3,276.9,147.5,279.8,149.3,280.5
			L149.3,280.5z"/>
	</g>
</g>
<g>
	<g>
		<path d="M170.5,277.7c-2.2,5.2-2.4,10.8-0.6,16.2c0.3,1,1.3,1.3,2.2,0.9c1.1-0.6,1.7-1.3,1.9-2.5c0.4-1.9-2.5-2.7-2.9-0.8
			c-0.2,0.2-0.4,0.5-0.6,0.7c0.7,0.3,1.5,0.6,2.2,0.9c-1.6-4.9-1.4-9.8,0.6-14.6C174.1,276.7,171.2,275.9,170.5,277.7L170.5,277.7z"
			/>
	</g>
</g>
<g>
	<g>
		<path d="M144.1,280.2c1.8-2.5,4.5-4,7.4-4.5c1.9-0.3,1.1-3.2-0.8-2.9c-3.8,0.7-7,2.8-9.2,5.9C140.4,280.3,143,281.8,144.1,280.2
			L144.1,280.2z"/>
	</g>
</g>
<g>
	<g>
		<path d="M169.7,275.4c2.6-1.4,6.3-0.3,7.4,2.6c0.7,1.8,3.6,1,2.9-0.8c-1.8-4.6-7.4-6.8-11.8-4.3
			C166.5,273.7,168,276.3,169.7,275.4L169.7,275.4z"/>
	</g>
</g>
<g>
	<path class="st0" d="M70.3,265.7C59.7,283,52.8,302.5,50,322.6c-2.1,15-1.9,30.2-1.3,45.3c1.1,31,3.7,61.9,8.5,92.6
		c0.2,1.4,0.5,3,1.5,4.1c1.3,1.4,3.4,1.6,5.1,2.4c3.5,1.6,6.9,5.7,10.3,4c1.5-0.8,2.3-2.5,3-4.1c4.1-10,8.1-20.1,12.2-30.1
		c0.7-1.7,1.4-3.4,1.2-5.2c-0.3-2.2-1.8-4-3-5.9c-3.9-6.1-4.4-13.7-4.7-20.9c-0.4-8.8-0.9-17.5-1.3-26.3
		c-0.5-10.2-0.5-21.8,6.7-29.1"/>
	<g>
		<path d="M69,265c-12,19.9-19.3,42.1-21.4,65.2c-2.4,26.2-0.2,53.2,2,79.4c1.1,12.7,2.4,25.3,4.1,38c0.4,3.2,0.9,6.4,1.4,9.6
			c0.3,2.2,0.4,5.1,1.4,7c2,3.6,7.3,4.6,10.5,6.6c9,5.8,11.5-3.6,14.3-10.6c2.4-5.9,4.8-11.8,7.2-17.7c1.8-4.3,4.6-8.9,2.6-13.5
			c-1.2-2.8-3.4-5.1-4.5-8.1c-1.4-3.5-1.9-7.3-2.2-11c-0.6-7-0.7-14-1.1-21c-0.6-12.4-3.4-28.3,5.7-38.3c1.3-1.4-0.8-3.5-2.1-2.1
			c-5.6,6.1-7.1,13.9-7.3,21.9c-0.2,10.8,0.8,21.8,1.4,32.6c0.2,4.7,0.4,9.4,1.3,14c1,4.9,3.4,8,5.5,12.4c2.5,5.1-2.5,12.9-4.4,17.7
			c-2.4,5.9-4.8,11.8-7.2,17.7c-1,2.3-1.8,5.9-6,4.6c-0.8-0.2-1.6-1-2.3-1.4c-1.5-1-3-1.7-4.5-2.5c-4.9-2.7-4.8-4.5-5.5-9
			c-0.6-3.7-1.1-7.4-1.6-11.1c-1.6-11.8-2.8-23.7-3.8-35.6c-1.9-23.2-3.6-46.7-2.6-70c1.1-25.9,8.2-50.8,21.6-73.1
			C72.6,264.8,70,263.3,69,265L69,265z"/>
	</g>
</g>
<g>
	<path class="st0" d="M207.3,268c10.6,3.9,20.4,10,28.5,17.9c2.1,2,4.1,4.2,5.4,6.8c1.4,2.8,2,6,2.3,9.1c3,28.1-8.7,57.1-1.5,84.5
		c3,11.7,9.4,24,4.6,35c-1.7,4-4.8,7.3-7.1,11c-3.5,5.5-5.4,12-5.4,18.6c0,6.3,1.6,12.5,1.5,18.8c-0.2,6.3-2.7,13.2-8.5,15.7
		c-4.4,1.9-10,0.6-13.1-3.1s-3.4-9.4-0.7-13.4c0.9-1.3,2.1-2.4,3-3.8c1.1-1.6,1.8-3.3,2.4-5.2c3.5-11.3,1.2-23.6-1.2-35.2
		c-2.9-14.4-5.8-28.7-8.7-43.1c-0.9-4.3-10.2-36.6-18.7-26.4c3.2-1.1,7.1,0.3,8.9,3.3c1.4,2.3,1.4,5.1,2,7.7
		c1.5,6.1,6.2,11,8.3,16.9c2.4,6.8,1.2,14.3,1.5,21.6c0.7,17.9,10.6,35.4,7.1,53c-4.2,0.1-8.3,0.2-12.5,0.2
		c-0.8,2.7-1.1,5.5-1.4,8.2c-4.7-0.9-9.7,1.2-13.9,0.6c-5.8-0.9-6.7-5.9-11.8-8.4c-3.3-1.7-7.3-0.8-11-1
		c-16.2-0.9-24.6-20.7-39.7-26.7c-2.3-0.9-4.7-1.5-6.8-2.6c-4.6-2.3-7.7-6.6-10.7-10.8c-9.2-12.9-18.3-25.9-27.5-38.8"/>
	<g>
		<path d="M206.9,269.4c7,2.7,13.7,6.2,19.8,10.7c6,4.5,12.8,9.9,14.7,17.5c3.6,14.6,0.2,31.2-1.6,45.9c-1.7,14.4-2.9,29.1,0.7,43.2
			c1.9,7.3,5,14.3,6,21.7c1.2,9-2.6,14.7-7.4,21.8c-3.4,5-5.5,10.6-6.3,16.6c-0.9,7.7,1.5,15.2,1.2,22.8
			c-0.3,7.5-5.1,17.4-14.3,14.7c-4.4-1.3-7.1-5.5-6.8-10.1c0.3-4.2,3.9-6.7,5.7-10.2c6-11.7,2.9-26.6,0.5-38.8
			c-3-14.9-5.5-30-9.1-44.8c-1.5-6-10.7-37.6-21.1-26.2c-1,1.1,0,2.9,1.5,2.5c8-1.9,7.8,6.4,9.4,11.5c1,3.1,2.8,5.9,4.4,8.7
			c2.9,4.9,4.6,9.3,4.9,15.1c0.2,4.2-0.2,8.5,0,12.7c0.7,17.8,10.3,34.6,7.1,52.6c0.5-0.4,1-0.7,1.4-1.1c-4.2,0.1-8.3,0.2-12.5,0.2
			c-0.6,0-1.3,0.5-1.4,1.1c-0.7,2.8-1.1,5.7-1.5,8.6c0.5-0.5,1-1,1.5-1.5c-3.5-0.4-6.7,0.3-10.2,0.6c-4.3,0.3-6.7-1.1-9.5-4
			c-3.5-3.7-6.8-5.4-12-5.5c-6.7-0.1-11.7-0.9-17.2-5c-4.5-3.3-8.3-7.5-12.3-11.4c-3.6-3.4-7.4-6.8-11.9-9c-2.9-1.5-6.2-2.1-9.1-3.6
			c-3.7-1.9-6.3-5.1-8.8-8.4c-9.9-13.4-19.2-27.1-28.8-40.7c-1.1-1.6-3.7-0.1-2.6,1.5c10,14.1,19.5,28.9,30.2,42.5
			c1.7,2.2,3.6,4.3,5.9,6c3.3,2.4,7,3,10.6,4.6c5.5,2.5,10,6.7,14.3,10.9c7.3,7.1,14.9,15.2,25.8,15.5c4.6,0.1,8.7-0.5,12.3,2.8
			c1.8,1.7,3.2,3.8,5.3,5.1c5.5,3.4,12.2,0.3,18.2,1c0.9,0.1,1.4-0.8,1.5-1.5c0.3-2.7,0.7-5.2,1.4-7.8c-0.5,0.4-1,0.7-1.4,1.1
			c4.2-0.1,8.3-0.2,12.5-0.2c0.6,0,1.3-0.5,1.4-1.1c1.8-10.1-0.2-19.9-2.6-29.7c-1.3-5.4-2.8-10.8-3.7-16.3
			c-1-6.1-0.6-12.1-0.7-18.3c-0.1-4.4-0.5-8.8-2.3-12.8c-2.1-4.9-5.8-9.1-7.3-14.3c-1.2-3.9-0.9-8.2-4.3-11
			c-2.5-2.1-5.6-2.5-8.7-1.8c0.5,0.8,1,1.7,1.5,2.5c5.6-6.2,11.8,11.7,13,15.2c3.5,9.8,5.1,20,7.1,30.2c1.8,8.7,3.6,17.4,5.3,26.1
			s3.3,17.8,1.8,26.6c-0.6,3.9-1.8,7.7-4.2,10.9c-1.7,2.3-3.4,4.2-4,7.1c-1,4.8,0.8,9.9,4.7,12.8c8.9,6.5,18.9-0.4,21.3-9.8
			c1.9-7.2-0.1-14.5-0.6-21.8c-0.5-8.2,1.8-15.9,6.5-22.7c3.9-5.7,7.4-10.7,7.6-17.8c0.2-7.4-2.5-14.5-4.7-21.5
			c-5-16-4.3-31.9-2.4-48.3c1.1-9,2.3-18.1,2.6-27.2c0.3-7.3,0.6-15.8-2.2-22.7c-2.5-6.3-8.5-11.1-13.7-15.1c-6.6-5.1-14-9-21.8-12
			C205.9,265.8,205.1,268.7,206.9,269.4L206.9,269.4z"/>
	</g>
</g>
<g>
	<g>
		<path d="M146.9,318c9,2.7,18.2,4.2,27.6,4.3c3.4,0,6.9,0,10-1.4c3.6-1.6,6.5-4.9,9.4-7.6c3.5-3.3,7.1-6.5,10.6-9.8
			c2.8-2.6,5.4-4.8,6.6-8.5c1.5-4.5,2.2-9.4,3.3-14c1-4.4,2.2-8.6,1.8-13.1c-0.2-1.9-3.2-1.9-3,0c0.7,7.5-2.5,15.8-4.2,23.1
			c-2,8.2-9.8,13.3-15.9,18.9c-3,2.8-6.2,6.5-10,8.2c-3.5,1.6-7.7,1.3-11.5,1.1c-8.2-0.3-16.2-1.8-24-4.1
			C145.8,314.6,145,317.5,146.9,318L146.9,318z"/>
	</g>
</g>
<g>
	<g>
		<path d="M193.9,263.8c2.8,10.3,8.1,19.4,15.7,26.8c1.4,1.4,3.5-0.8,2.1-2.1c-7.2-7.1-12.3-15.7-14.9-25.5
			C196.3,261.2,193.4,262,193.9,263.8L193.9,263.8z"/>
	</g>
</g>
<g>
	<g>
		<path d="M163,298.4c4.2,5.2,9.6,9.1,16,11.2c4.5,1.5,13.8,3.7,18.1,0.6c1.6-1.1,0.8-2.2,1.6-3.5c1.3-2,3.9-1.2,5.7-2.9
			c1.9-1.8,3.3-5.6,4.2-8c1.4-3.6,1.8-6.9,1-10.7c-0.4-1.9-3.3-1.1-2.9,0.8c0.9,4.3-0.4,8.1-2.3,11.9c-0.9,1.7-1.4,2.8-3.1,3.7
			c-1.2,0.6-2.1,0.3-3.1,0.8c-0.8,0.4-1.5,0.7-2,1.5c-1.3,2,0.2,3.2-2.6,4.2c-4.5,1.5-11-0.2-15.2-1.9c-5.3-2.1-9.7-5.5-13.3-10
			C163.9,294.8,161.8,297,163,298.4L163,298.4z"/>
	</g>
</g>
</svg>
